<?xml version="1.0" standalone="no"?>
<!DOCTYPE svg PUBLIC "-//W3C//DTD SVG 20010904//EN"
 "http://www.w3.org/TR/2001/REC-SVG-20010904/DTD/svg10.dtd">
<svg version="1.0" xmlns="http://www.w3.org/2000/svg"
 width="54.000000pt" height="291.000000pt" viewBox="0 0 54.000000 291.000000"
 preserveAspectRatio="xMidYMid meet">
<g transform="translate(0.000000,291.000000) scale(0.100000,-0.100000)"
fill="#2c2f52" stroke="none">
<path d="M44 2759 c-3 -5 21 -9 54 -9 32 0 79 -7 105 -16 64 -22 139 -91 166
-153 l21 -50 0 -1061 0 -1061 -21 -50 c-27 -62 -102 -131 -166 -153 -26 -9
-71 -16 -100 -16 -29 0 -53 -3 -53 -8 0 -4 35 -7 78 -6 132 1 235 66 291 184
l26 55 0 1056 0 1056 -35 69 c-39 76 -102 132 -173 154 -50 16 -185 22 -193 9z
m373 -1811 c-3 -8 -6 -5 -6 6 -1 11 2 17 5 13 3 -3 4 -12 1 -19z m10 -40 c-3
-8 -6 -5 -6 6 -1 11 2 17 5 13 3 -3 4 -12 1 -19z m-10 -40 c-3 -8 -6 -5 -6 6
-1 11 2 17 5 13 3 -3 4 -12 1 -19z"/>
</g>
</svg>