<?xml version="1.0" standalone="no"?>
<!DOCTYPE svg PUBLIC "-//W3C//DTD SVG 20010904//EN"
 "http://www.w3.org/TR/2001/REC-SVG-20010904/DTD/svg10.dtd">
<svg version="1.0" xmlns="http://www.w3.org/2000/svg"
 width="545.000000pt" height="545.000000pt" viewBox="0 0 545.000000 545.000000"
 preserveAspectRatio="xMidYMid meet">

<g transform="translate(0.000000,545.000000) scale(0.100000,-0.100000)"
fill="#d95c4a" stroke="none">
<path d="M2560 5283 c-357 -26 -741 -135 -1050 -300 -752 -400 -1252 -1123
-1371 -1983 -18 -124 -18 -526 -1 -645 89 -620 353 -1147 783 -1559 411 -394
896 -628 1474 -712 157 -23 512 -24 670 -1 669 95 1256 419 1679 927 225 270
420 644 507 974 65 248 89 434 89 691 0 261 -21 422 -86 674 -144 555 -492
1069 -959 1415 -156 117 -239 167 -415 255 -398 198 -886 296 -1320 264z m520
-188 c522 -75 1011 -323 1386 -701 198 -199 331 -387 460 -649 285 -583 328
-1216 123 -1841 -80 -244 -197 -467 -354 -679 -349 -470 -845 -797 -1409 -930
-796 -187 -1653 48 -2240 615 -404 390 -651 869 -733 1419 -24 161 -24 531 0
692 55 367 187 711 390 1014 185 276 450 533 732 710 285 180 675 318 995 354
52 6 111 13 130 15 72 9 419 -4 520 -19z"/>
<path d="M2495 4939 c-278 -30 -610 -133 -845 -262 -108 -59 -307 -196 -363
-249 -74 -70 -75 -89 -3 -166 159 -170 3078 -3077 3097 -3084 37 -14 74 9 135
85 439 551 597 1297 420 1977 -230 884 -957 1542 -1861 1685 -122 19 -456 27
-580 14z m420 -170 c718 -63 1356 -491 1684 -1129 219 -424 286 -884 201
-1360 -27 -149 -106 -384 -180 -535 -60 -124 -206 -355 -224 -355 -5 0 -94 85
-197 190 l-187 189 34 81 c19 45 44 115 56 156 23 81 20 78 115 88 103 10 204
85 252 186 22 47 26 68 26 145 0 73 -5 99 -23 136 -56 113 -162 186 -285 196
l-63 5 -33 102 c-70 222 -175 391 -351 567 -167 168 -344 278 -558 348 -48 16
-80 31 -72 34 8 3 35 10 60 17 54 14 145 68 182 107 l28 29 -60 59 -60 59 -32
-31 c-40 -39 -112 -72 -155 -73 -18 0 -33 1 -33 3 0 1 7 24 15 51 29 97 15
192 -38 253 -101 115 -283 88 -348 -52 -36 -78 -16 -198 47 -281 l36 -46 -28
-29 c-23 -24 -36 -29 -75 -29 -122 0 -376 -63 -518 -128 l-45 -20 -50 44 c-85
73 -586 580 -586 592 0 6 51 45 113 86 403 268 870 387 1352 345z m-27 -591
c23 -23 8 -138 -18 -138 -17 0 -50 63 -50 96 0 33 15 54 40 54 9 0 21 -5 28
-12z m94 -518 c306 -63 575 -233 766 -485 29 -39 80 -124 112 -190 123 -249
162 -504 119 -770 -11 -68 -64 -246 -85 -287 l-14 -28 -361 360 c-400 399
-382 373 -316 443 67 72 175 70 241 -4 19 -21 38 -54 42 -73 l6 -36 85 0 86 0
-7 47 c-20 145 -146 270 -292 289 -107 13 -239 -41 -299 -123 -16 -23 -34 -42
-39 -42 -5 -1 -190 181 -412 404 -375 376 -402 405 -382 416 69 37 260 86 398
103 68 8 256 -5 352 -24z m1277 -1097 c69 -52 92 -148 52 -220 -27 -47 -75
-81 -119 -85 l-33 -3 -2 168 -2 169 39 -5 c22 -3 51 -14 65 -24z"/>
<path d="M1034 4170 c-28 -11 -96 -92 -176 -210 -315 -461 -448 -999 -383
-1552 114 -976 844 -1770 1807 -1962 406 -81 837 -51 1213 86 227 83 423 190
617 336 106 80 118 94 118 144 0 30 -115 148 -1552 1586 -1348 1348 -1593
1588 -1620 1581 -2 0 -12 -4 -24 -9z m335 -504 l293 -293 -44 -55 c-105 -128
-196 -297 -249 -460 l-30 -95 -65 -6 c-83 -8 -141 -34 -204 -93 -73 -69 -104
-139 -104 -239 0 -67 4 -90 27 -140 54 -116 172 -195 291 -195 l54 0 27 -87
c157 -507 580 -886 1102 -990 135 -26 415 -24 551 5 225 49 457 159 610 290
l54 45 171 -171 c164 -164 171 -172 152 -187 -264 -200 -584 -337 -940 -401
-157 -29 -517 -26 -689 5 -513 91 -972 364 -1291 765 -103 130 -173 242 -250
401 -204 419 -258 904 -155 1380 45 208 143 448 259 635 56 89 121 180 131
180 3 0 137 -132 299 -294z m573 -573 c87 -87 158 -161 158 -165 0 -5 -11 -8
-23 -8 -40 0 -145 -59 -182 -102 -47 -56 -77 -121 -83 -179 l-5 -49 80 0 80 0
12 40 c15 50 56 99 98 116 96 41 210 -20 229 -123 l6 -33 67 0 66 0 294 -294
294 -294 -64 -30 c-94 -44 -157 -55 -268 -50 -125 7 -206 38 -317 122 -13 10
-71 -34 -109 -83 l-19 -25 43 -36 c206 -178 572 -200 799 -49 24 16 46 29 50
29 4 0 99 -92 211 -204 l205 -205 -25 -21 c-106 -90 -317 -203 -449 -240 -458
-127 -921 -9 -1250 320 -327 327 -446 791 -320 1250 28 101 126 297 197 392
32 43 60 78 63 78 3 0 76 -71 162 -157z m-637 -673 c0 -190 3 -184 -71 -151
-129 58 -137 233 -14 298 24 13 53 23 64 23 20 0 21 -4 21 -170z"/>
</g>
</svg>
