<?xml version="1.0" encoding="UTF-8"?>
<!DOCTYPE svg PUBLIC "-//W3C//DTD SVG 1.1//EN" "http://www.w3.org/Graphics/SVG/1.1/DTD/svg11.dtd">
<svg xmlns="http://www.w3.org/2000/svg" version="1.1" width="876px" height="95px" style="shape-rendering:geometricPrecision; text-rendering:geometricPrecision; image-rendering:optimizeQuality; fill-rule:evenodd; clip-rule:evenodd" xmlns:xlink="http://www.w3.org/1999/xlink">
<g><path style="opacity:1" fill="#cc4e3c" d="M 75.5,-0.5 C 86.8333,-0.5 98.1667,-0.5 109.5,-0.5C 126.221,1.91087 142.888,5.24421 159.5,9.5C 162.338,10.635 165.338,11.635 168.5,12.5C 169.086,12.2907 169.586,11.9574 170,11.5C 172.12,13.821 174.62,14.4877 177.5,13.5C 178.696,13.8457 178.696,14.3457 177.5,15C 180.264,15.5323 182.93,16.3657 185.5,17.5C 186.167,17.1667 186.833,16.8333 187.5,16.5C 187.833,17.1667 188.167,17.8333 188.5,18.5C 189.167,18.1667 189.833,17.8333 190.5,17.5C 190.833,18.1667 191.167,18.8333 191.5,19.5C 192.167,19.1667 192.833,18.8333 193.5,18.5C 194.696,18.8457 194.696,19.3457 193.5,20C 194.549,20.4922 195.549,20.3256 196.5,19.5C 197.696,19.8457 197.696,20.3457 196.5,21C 197.448,21.4828 198.448,21.6495 199.5,21.5C 200.93,22.5375 202.597,23.2041 204.5,23.5C 205.313,24.6527 206.313,24.6527 207.5,23.5C 207.833,24.1667 208.167,24.8333 208.5,25.5C 209.842,24.0977 210.676,24.4311 211,26.5C 212.507,25.4652 214.007,25.6319 215.5,27C 214.66,28.6665 215.16,28.8331 217,27.5C 217.333,28.1667 217.667,28.8333 218,29.5C 218.977,28.2264 219.811,28.2264 220.5,29.5C 219.167,29.8333 219.167,30.1667 220.5,30.5C 220.5,31.1667 220.833,31.5 221.5,31.5C 222.167,31.5 222.833,31.5 223.5,31.5C 224.189,32.7736 225.023,32.7736 226,31.5C 226.324,33.5689 227.158,33.9023 228.5,32.5C 230.692,33.2704 232.026,34.2704 232.5,35.5C 237.105,38.2958 242.105,40.2958 247.5,41.5C 253.566,44.1668 260.9,45.8335 269.5,46.5C 275.112,44.7193 280.112,43.386 284.5,42.5C 285.167,42.5 285.5,42.1667 285.5,41.5C 287.233,40.9924 287.566,40.159 286.5,39C 289.357,39.2527 291.691,37.9193 293.5,35C 292.825,32.7579 293.325,30.5912 295,28.5C 296.666,29.3402 296.833,28.8402 295.5,27C 296.704,25.6472 297.371,23.9806 297.5,22C 296.962,18.9811 296.296,16.4811 295.5,14.5C 295.082,13.7784 294.416,13.2784 293.5,13C 293.619,11.8552 293.952,10.6885 294.5,9.5C 296.613,10.2563 298.613,10.4229 300.5,10C 300.167,10.3333 299.833,10.6667 299.5,11C 300.667,12.1667 301.833,13.3333 303,14.5C 304.666,13.6598 304.833,14.1598 303.5,16C 304.253,17.487 305.086,17.6537 306,16.5C 306.492,17.549 306.326,18.549 305.5,19.5C 306.167,19.8333 306.833,20.1667 307.5,20.5C 307.633,24.1328 307.299,27.7995 306.5,31.5C 305.662,31.8417 305.328,32.5084 305.5,33.5C 304.662,33.8417 304.328,34.5084 304.5,35.5C 303.167,35.8333 303.167,36.1667 304.5,36.5C 304.672,37.4916 304.338,38.1583 303.5,38.5C 303.167,37.1667 302.833,37.1667 302.5,38.5C 301.833,38.5 301.5,38.8333 301.5,39.5C 300.527,41.1392 299.194,42.4726 297.5,43.5C 296.833,43.5 296.5,43.8333 296.5,44.5C 295.833,44.5 295.5,44.8333 295.5,45.5C 294.167,45.8333 294.167,46.1667 295.5,46.5C 293.635,48.5342 291.468,49.2008 289,48.5C 288.667,49.1667 288.333,49.8333 288,50.5C 287.329,49.7476 286.496,49.4142 285.5,49.5C 284.508,49.3284 283.842,49.6618 283.5,50.5C 277.581,51.2908 271.581,51.7908 265.5,52C 266.766,52.3095 267.933,52.8095 269,53.5C 269.333,53.1667 269.667,52.8333 270,52.5C 270.278,53.4158 270.778,54.0825 271.5,54.5C 271.842,55.3382 272.508,55.6716 273.5,55.5C 273.842,56.3382 274.508,56.6716 275.5,56.5C 276.189,57.7736 277.023,57.7736 278,56.5C 278.317,58.3008 278.984,58.6341 280,57.5C 280.317,59.3008 280.984,59.6341 282,58.5C 282.317,60.3008 282.984,60.6341 284,59.5C 284.317,61.3008 284.984,61.6341 286,60.5C 286.317,62.3008 286.984,62.6341 288,61.5C 288.317,63.3008 288.984,63.6341 290,62.5C 290.317,64.3008 290.984,64.6341 292,63.5C 292.324,65.5689 293.158,65.9023 294.5,64.5C 296.833,65.6667 299.167,66.8333 301.5,68C 301.167,68.3333 300.833,68.6667 300.5,69C 301.448,69.4828 302.448,69.6495 303.5,69.5C 305.214,70.7384 307.214,71.405 309.5,71.5C 322.993,76.5204 336.993,78.1871 351.5,76.5C 353.984,74.226 356.65,73.226 359.5,73.5C 360.833,72.8333 361.833,71.8333 362.5,70.5C 363.167,70.5 363.5,70.1667 363.5,69.5C 364.5,69.1667 365.167,68.5 365.5,67.5C 366.791,66.5272 366.791,65.5272 365.5,64.5C 366.09,63.2011 367.09,62.3678 368.5,62C 367.549,61.2825 367.383,60.4491 368,59.5C 369.666,60.3402 369.833,59.8402 368.5,58C 369.72,56.4747 370.387,54.6413 370.5,52.5C 370.33,50.2852 369.663,48.2852 368.5,46.5C 369.902,45.1575 369.569,44.3242 367.5,44C 367.944,42.4667 368.277,40.9667 368.5,39.5C 370.258,40.1279 371.758,41.1279 373,42.5C 374.84,41.1669 375.34,41.3335 374.5,43C 375.469,44.7583 376.636,45.2583 378,44.5C 377.383,46.0948 377.716,47.4281 379,48.5C 380.666,47.6598 380.833,48.1598 379.5,50C 380.167,50.3333 380.833,50.6667 381.5,51C 381.395,55.6492 381.395,60.3159 381.5,65C 380.244,65.4169 379.577,66.2502 379.5,67.5C 378.662,67.8417 378.328,68.5084 378.5,69.5C 377.662,69.8417 377.328,70.5084 377.5,71.5C 376.833,71.5 376.5,71.8333 376.5,72.5C 375.833,72.5 375.5,72.8333 375.5,73.5C 376.167,74.8333 376.833,74.8333 377.5,73.5C 377.833,73.5 378.167,73.5 378.5,73.5C 379.239,73.631 379.906,73.4643 380.5,73C 379.66,71.3335 380.16,71.1669 382,72.5C 382.333,71.8333 382.667,71.1667 383,70.5C 384.84,71.8331 385.34,71.6665 384.5,70C 385.993,68.6319 387.493,68.4652 389,69.5C 390.487,68.7471 390.654,67.9138 389.5,67C 391.809,67.9244 393.476,67.0911 394.5,64.5C 395.5,64.1667 396.167,63.5 396.5,62.5C 396.334,59.5188 397.001,56.5188 398.5,53.5C 396.389,49.0118 394.723,44.6784 393.5,40.5C 392.34,38.7973 393.007,38.1307 395.5,38.5C 397.598,37.0374 399.598,37.2041 401.5,39C 400.434,40.159 400.767,40.9924 402.5,41.5C 402.833,42.5 403.5,43.1667 404.5,43.5C 404.5,44.1667 404.833,44.5 405.5,44.5C 405.328,45.4916 405.662,46.1583 406.5,46.5C 406.369,47.2389 406.536,47.9056 407,48.5C 407.654,47.3044 408.154,47.3044 408.5,48.5C 408.471,54.6712 408.471,60.8378 408.5,67C 406.431,67.3242 406.098,68.1575 407.5,69.5C 407.154,70.6956 406.654,70.6956 406,69.5C 405.536,70.0944 405.369,70.7611 405.5,71.5C 404.167,71.8333 404.167,72.1667 405.5,72.5C 405.672,73.4916 405.338,74.1583 404.5,74.5C 404.167,73.1667 403.833,73.1667 403.5,74.5C 402.662,74.8417 402.328,75.5084 402.5,76.5C 401.833,76.5 401.5,76.8333 401.5,77.5C 400.833,77.5 400.5,77.8333 400.5,78.5C 399.833,78.5 399.5,78.8333 399.5,79.5C 398.833,79.5 398.5,79.8333 398.5,80.5C 397.833,80.5 397.5,80.8333 397.5,81.5C 396.833,81.5 396.5,81.8333 396.5,82.5C 395.167,82.8333 395.167,83.1667 396.5,83.5C 396.158,84.3382 395.492,84.6716 394.5,84.5C 394.167,83.1667 393.833,83.1667 393.5,84.5C 392.167,84.8333 392.167,85.1667 393.5,85.5C 391.392,87.0591 389.059,88.3924 386.5,89.5C 385.158,88.0977 384.324,88.4311 384,90.5C 383.586,90.0426 383.086,89.7093 382.5,89.5C 382.167,90.1667 381.833,90.8333 381.5,91.5C 380.833,91.1667 380.167,90.8333 379.5,90.5C 367.671,93.1524 355.838,93.1524 344,90.5C 342.297,91.7002 340.797,91.3668 339.5,89.5C 338.914,89.7093 338.414,90.0426 338,90.5C 336.89,88.9632 335.39,88.2965 333.5,88.5C 332.687,87.3473 331.687,87.3473 330.5,88.5C 330.167,87.8333 329.833,87.1667 329.5,86.5C 328.833,86.8333 328.167,87.1667 327.5,87.5C 327.167,86.8333 326.833,86.1667 326.5,85.5C 325.833,85.8333 325.167,86.1667 324.5,86.5C 324.167,85.8333 323.833,85.1667 323.5,84.5C 322.833,84.8333 322.167,85.1667 321.5,85.5C 320.304,85.1543 320.304,84.6543 321.5,84C 320.551,83.3828 319.718,83.5494 319,84.5C 318.583,83.244 317.75,82.5774 316.5,82.5C 315.687,81.3473 314.687,81.3473 313.5,82.5C 312.304,82.1543 312.304,81.6543 313.5,81C 312.551,80.3828 311.718,80.5494 311,81.5C 310.676,79.4311 309.842,79.0977 308.5,80.5C 307.304,80.1543 307.304,79.6543 308.5,79C 307.906,78.5357 307.239,78.369 306.5,78.5C 305.687,77.3473 304.687,77.3473 303.5,78.5C 302.5,78 301.5,77.5 300.5,77C 301.34,75.3335 300.84,75.1669 299,76.5C 298.676,74.4311 297.842,74.0977 296.5,75.5C 293.551,74.4551 291.551,73.1218 290.5,71.5C 290.158,70.6618 289.492,70.3284 288.5,70.5C 284.5,68.8333 280.5,67.1667 276.5,65.5C 277.833,65.1667 277.833,64.8333 276.5,64.5C 276.5,63.8333 276.167,63.5 275.5,63.5C 274.833,63.5 274.5,63.8333 274.5,64.5C 269.845,63.0349 266.178,61.0349 263.5,58.5C 263.158,57.6618 262.492,57.3284 261.5,57.5C 261.158,56.6618 260.492,56.3284 259.5,56.5C 259.158,55.6618 258.492,55.3284 257.5,55.5C 257.158,54.6618 256.492,54.3284 255.5,54.5C 255.158,53.6618 254.492,53.3284 253.5,53.5C 251.5,52.8333 249.5,52.1667 247.5,51.5C 248.833,51.1667 248.833,50.8333 247.5,50.5C 247.5,49.8333 247.167,49.5 246.5,49.5C 245.833,49.5 245.5,49.8333 245.5,50.5C 242.779,50.0428 241.113,49.0428 240.5,47.5C 239.811,46.2264 238.977,46.2264 238,47.5C 237.676,45.4311 236.842,45.0977 235.5,46.5C 232.551,45.4551 230.551,44.1218 229.5,42.5C 228.687,41.3473 227.687,41.3473 226.5,42.5C 224.833,41.6667 223.167,40.8333 221.5,40C 222.34,38.3335 221.84,38.1669 220,39.5C 219.676,37.4311 218.842,37.0977 217.5,38.5C 216.5,38 215.5,37.5 214.5,37C 215.34,35.3335 214.84,35.1669 213,36.5C 212.676,34.4311 211.842,34.0977 210.5,35.5C 210.167,34.8333 209.833,34.1667 209.5,33.5C 208.158,34.9023 207.324,34.5689 207,32.5C 206.586,32.9574 206.086,33.2907 205.5,33.5C 205.167,32.8333 204.833,32.1667 204.5,31.5C 199.781,30.1494 194.781,28.4827 189.5,26.5C 188.197,27.7178 187.197,27.3845 186.5,25.5C 185.833,25.8333 185.167,26.1667 184.5,26.5C 184.167,25.8333 183.833,25.1667 183.5,24.5C 182.833,24.8333 182.167,25.1667 181.5,25.5C 180.304,25.1543 180.304,24.6543 181.5,24C 178.736,23.4677 176.07,22.6343 173.5,21.5C 172.914,21.7093 172.414,22.0426 172,22.5C 168.63,19.9098 164.964,18.9098 161,19.5C 159.921,17.6063 158.587,17.273 157,18.5C 156.481,17.4844 155.647,16.8178 154.5,16.5C 144.962,13.9022 135.628,11.7356 126.5,10C 113.636,7.90408 100.803,8.07074 88,10.5C 86.6739,10.7549 85.6739,11.4216 85,12.5C 84.586,12.0426 84.086,11.7093 83.5,11.5C 82.7174,13.2882 81.3841,14.2882 79.5,14.5C 79.1667,13.1667 78.8333,13.1667 78.5,14.5C 77.1667,14.8333 77.1667,15.1667 78.5,15.5C 78.1583,16.3382 77.4916,16.6716 76.5,16.5C 76.1667,15.1667 75.8333,15.1667 75.5,16.5C 74.8333,16.5 74.5,16.8333 74.5,17.5C 73.8333,17.5 73.5,17.8333 73.5,18.5C 72.8333,18.5 72.5,18.8333 72.5,19.5C 71.8333,19.5 71.5,19.8333 71.5,20.5C 70.8333,20.5 70.5,20.8333 70.5,21.5C 69.8333,21.5 69.5,21.8333 69.5,22.5C 68.8333,22.5 68.5,22.8333 68.5,23.5C 67.3636,26.8583 66.3636,30.6916 65.5,35C 66.2822,37.7405 66.7822,40.5738 67,43.5C 67.3333,43.1667 67.6667,42.8333 68,42.5C 69.6747,44.5912 70.1747,46.7579 69.5,49C 70.0442,49.7172 70.7109,50.2172 71.5,50.5C 71.3284,51.4916 71.6618,52.1583 72.5,52.5C 73.1667,53.8333 74.1667,54.8333 75.5,55.5C 75.8417,56.3382 76.5084,56.6716 77.5,56.5C 79.3854,56.8816 80.8854,58.215 82,60.5C 82.9772,59.2264 83.8106,59.2264 84.5,60.5C 83.1667,60.8333 83.1667,61.1667 84.5,61.5C 85.96,63.4224 87.6267,64.0891 89.5,63.5C 88.1667,63.8333 88.1667,64.1667 89.5,64.5C 89.5,65.1667 89.8333,65.5 90.5,65.5C 91.5832,65.4606 92.5832,65.1272 93.5,64.5C 94.1924,65.0253 94.6924,65.6919 95,66.5C 95.7175,65.5494 96.5509,65.3828 97.5,66C 96.1667,67 96.1667,68 97.5,69C 96.9056,69.4643 96.2389,69.631 95.5,69.5C 95.1667,68.1667 94.8333,68.1667 94.5,69.5C 87.7518,70.8921 81.0852,70.5587 74.5,68.5C 73.8106,67.2264 72.9772,67.2264 72,68.5C 71.7216,67.5842 71.2216,66.9175 70.5,66.5C 70.1667,65.1667 69.8333,65.1667 69.5,66.5C 66.93,63.4073 63.7634,60.074 60,56.5C 58.3335,57.3402 58.1669,56.8402 59.5,55C 58.8742,54.2496 58.3742,53.4162 58,52.5C 56.3335,53.3402 56.1669,52.8402 57.5,51C 56.8333,50.6667 56.1667,50.3333 55.5,50C 55.5,43.3333 55.5,36.6667 55.5,30C 56.6141,28.5507 57.6141,27.2173 58.5,26C 57.1669,24.1598 57.3335,23.6598 59,24.5C 60.332,22.34 61.832,20.34 63.5,18.5C 65.1667,17.5 66.5,16.1667 67.5,14.5C 69.5053,13.746 70.172,12.5793 69.5,11C 71.0948,11.6171 72.4281,11.2837 73.5,10C 72.2881,8.89318 72.6214,8.39318 74.5,8.5C 74.5,9.16667 74.8333,9.5 75.5,9.5C 76.1667,9.5 76.5,9.16667 76.5,8.5C 77.4734,8.01328 78.4734,7.51328 79.5,7C 77.6131,6.22039 75.9464,6.38705 74.5,7.5C 71.8127,7.33591 69.146,7.50258 66.5,8C 64.5975,8.19917 63.0975,9.03251 62,10.5C 61.4387,9.97814 60.772,9.6448 60,9.5C 58.9895,9.89188 58.4895,10.5585 58.5,11.5C 57.1575,10.0977 56.3242,10.4311 56,12.5C 55.586,12.0426 55.086,11.7093 54.5,11.5C 54.1667,12.1667 53.8333,12.8333 53.5,13.5C 52.1667,13.5 50.8333,13.5 49.5,13.5C 47.991,15.984 45.3243,17.6507 41.5,18.5C 41.1667,17.1667 40.8333,17.1667 40.5,18.5C 39.7638,20.2294 38.4305,21.2294 36.5,21.5C 36.1667,20.1667 35.8333,20.1667 35.5,21.5C 34.1667,21.8333 34.1667,22.1667 35.5,22.5C 35.1583,23.3382 34.4916,23.6716 33.5,23.5C 33.1667,22.1667 32.8333,22.1667 32.5,23.5C 31.8333,23.5 31.5,23.8333 31.5,24.5C 30.1667,24.5 29.5,25.1667 29.5,26.5C 29.6716,27.4916 29.3382,28.1583 28.5,28.5C 28.1667,27.1667 27.8333,27.1667 27.5,28.5C 26.8333,28.5 26.5,28.8333 26.5,29.5C 25.6618,29.8417 25.3284,30.5084 25.5,31.5C 25.2763,33.4121 24.6096,35.5788 23.5,38C 23.6667,39.1667 23.8333,40.3333 24,41.5C 24.3333,41.1667 24.6667,40.8333 25,40.5C 26.6747,42.5912 27.1747,44.7579 26.5,47C 28.3702,49.0396 30.3702,50.8729 32.5,52.5C 33.172,53.2674 34.0053,53.9341 35,54.5C 35.7175,53.5494 36.5509,53.3828 37.5,54C 36.6598,55.6665 37.1598,55.8331 39,54.5C 39.3076,55.3081 39.8076,55.9747 40.5,56.5C 43.5056,54.9962 44.1723,55.6629 42.5,58.5C 41.8333,58.5 41.5,58.8333 41.5,59.5C 40.7784,59.9175 40.2784,60.5842 40,61.5C 36.5699,61.3063 33.0699,61.3063 29.5,61.5C 29.1667,60.8333 28.8333,60.1667 28.5,59.5C 27.1575,60.9023 26.3242,60.5689 26,58.5C 24.4931,59.5348 22.9931,59.3681 21.5,58C 22.566,56.841 22.2327,56.0076 20.5,55.5C 19.8333,54.1667 18.8333,53.1667 17.5,52.5C 16.9217,50.5565 15.9217,50.2232 14.5,51.5C 13.641,55.1231 13.641,58.4565 14.5,61.5C 17.1373,63.5713 18.1373,66.0713 17.5,69C 18.2529,70.487 19.0862,70.6537 20,69.5C 20.6172,70.4491 20.4506,71.2825 19.5,72C 20.3805,72.7083 21.0472,73.5416 21.5,74.5C 22.5,76.1667 23.8333,77.5 25.5,78.5C 26.7942,79.2899 27.9609,80.2899 29,81.5C 29.9772,80.2264 30.8106,80.2264 31.5,81.5C 30.1667,81.8333 30.1667,82.1667 31.5,82.5C 32.1894,83.7736 33.0228,83.7736 34,82.5C 34.3242,84.5689 35.1575,84.9023 36.5,83.5C 36.8333,84.1667 37.1667,84.8333 37.5,85.5C 39.478,86.1314 41.6446,86.1314 44,85.5C 45.7284,86.3523 45.895,87.3523 44.5,88.5C 43.8333,88.5 43.5,88.8333 43.5,89.5C 42.1667,89.8333 42.1667,90.1667 43.5,90.5C 36.113,91.4799 28.4464,91.8132 20.5,91.5C 18.3078,90.7296 16.9745,89.7296 16.5,88.5C 16.1667,87.1667 15.8333,87.1667 15.5,88.5C 13.5695,88.2294 12.2362,87.2294 11.5,85.5C 10.746,83.4947 9.57931,82.828 8,83.5C 7.3843,80.5052 5.3843,78.1719 2,76.5C 0.631884,75.0069 0.465217,73.5069 1.5,72C 0.905578,71.5357 0.238911,71.369 -0.5,71.5C -0.5,71.1667 -0.5,70.8333 -0.5,70.5C 0.833333,69.8333 0.833333,69.1667 -0.5,68.5C -0.5,63.8333 -0.5,59.1667 -0.5,54.5C 0.833333,53.8333 0.833333,53.1667 -0.5,52.5C -0.5,52.1667 -0.5,51.8333 -0.5,51.5C 1.75828,51.2249 2.09162,50.2249 0.5,48.5C 1.16667,48.1667 1.83333,47.8333 2.5,47.5C 1.09773,46.1575 1.43107,45.3242 3.5,45C 3.04265,44.586 2.70931,44.086 2.5,43.5C 3.66667,41.1667 4.83333,38.8333 6,36.5C 6.9138,37.6537 7.74714,37.487 8.5,36C 7.16686,34.1598 7.33353,33.6598 9,34.5C 11.3112,30.983 14.8112,27.3163 19.5,23.5C 20.5,23.1667 21.1667,22.5 21.5,21.5C 22.5,21.1667 23.1667,20.5 23.5,19.5C 24.4916,19.6716 25.1583,19.3382 25.5,18.5C 26.1667,18.1667 26.8333,17.8333 27.5,17.5C 28.1667,17.5 28.5,17.1667 28.5,16.5C 29.8333,16.1667 29.8333,15.8333 28.5,15.5C 29.1894,14.2264 30.0228,14.2264 31,15.5C 34.6508,11.4107 39.1508,8.41071 44.5,6.5C 45.086,6.70931 45.586,7.04265 46,7.5C 47.258,4.94474 49.0914,4.27807 51.5,5.5C 52.6956,5.15431 52.6956,4.65431 51.5,4C 59.1196,2.9152 67.1196,1.4152 75.5,-0.5 Z M 74.5,7.5 C 75.9464,6.38705 77.6131,6.22039 79.5,7C 78.4734,7.51328 77.4734,8.01328 76.5,8.5C 76.1583,7.66175 75.4916,7.32842 74.5,7.5 Z"/></g>
<g><path style="opacity:1" fill="#cc4e3c" d="M 821.5,6.5 C 822.209,7.40397 823.209,7.73731 824.5,7.5C 825.189,8.77359 826.023,8.77359 827,7.5C 827.324,9.56893 828.158,9.90227 829.5,8.5C 832.724,9.94089 835.724,11.6076 838.5,13.5C 837.167,13.8333 837.167,14.1667 838.5,14.5C 838.5,15.1667 838.833,15.5 839.5,15.5C 840.167,15.5 840.5,15.1667 840.5,14.5C 841.492,14.3284 842.158,14.6618 842.5,15.5C 841.167,15.8333 841.167,16.1667 842.5,16.5C 843.96,18.4224 845.627,19.0891 847.5,18.5C 846.167,18.8333 846.167,19.1667 847.5,19.5C 849.125,21.7081 851.125,22.5414 853.5,22C 852.828,23.5793 853.495,24.746 855.5,25.5C 855.973,26.9063 856.973,27.573 858.5,27.5C 859.167,28.8333 860.167,29.8333 861.5,30.5C 861.328,31.4916 861.662,32.1583 862.5,32.5C 863.542,34.7914 865.042,35.7914 867,35.5C 867.464,36.0944 867.631,36.7611 867.5,37.5C 866.167,37.8333 866.167,38.1667 867.5,38.5C 870.643,40.6122 871.976,43.4456 871.5,47C 872.167,47.3333 872.833,47.6667 873.5,48C 872.549,48.7175 872.383,49.5509 873,50.5C 873.654,49.3044 874.154,49.3044 874.5,50.5C 872.908,52.2249 873.242,53.2249 875.5,53.5C 875.5,53.8333 875.5,54.1667 875.5,54.5C 874.167,55.1667 874.167,55.8333 875.5,56.5C 875.5,61.5 875.5,66.5 875.5,71.5C 874.167,72.1667 874.167,72.8333 875.5,73.5C 875.5,73.8333 875.5,74.1667 875.5,74.5C 873.621,74.3932 873.288,74.8932 874.5,76C 873.662,77.1554 872.662,78.3221 871.5,79.5C 870.833,79.5 870.5,79.8333 870.5,80.5C 869.662,80.8417 869.328,81.5084 869.5,82.5C 868.833,82.5 868.5,82.8333 868.5,83.5C 867.833,83.5 867.5,83.8333 867.5,84.5C 866.833,84.5 866.5,84.8333 866.5,85.5C 865.833,85.5 865.5,85.8333 865.5,86.5C 864.167,86.8333 864.167,87.1667 865.5,87.5C 865.158,88.3382 864.492,88.6716 863.5,88.5C 863.167,87.1667 862.833,87.1667 862.5,88.5C 861.167,88.8333 861.167,89.1667 862.5,89.5C 860.392,91.0591 858.059,92.3924 855.5,93.5C 854.056,92.019 853.389,92.3523 853.5,94.5C 853.167,94.5 852.833,94.5 852.5,94.5C 851.833,93.1667 851.167,93.1667 850.5,94.5C 845.833,94.5 841.167,94.5 836.5,94.5C 835.833,93.1667 835.167,93.1667 834.5,94.5C 833.833,94.5 833.167,94.5 832.5,94.5C 832.082,93.7784 831.416,93.2784 830.5,93C 831.171,92.0138 831.171,90.8471 830.5,89.5C 831.167,89.5 831.5,89.1667 831.5,88.5C 834.551,88.5462 837.218,87.5462 839.5,85.5C 840.086,85.7093 840.586,86.0426 841,86.5C 841.422,84.5743 842.589,83.5743 844.5,83.5C 844.833,84.8333 845.167,84.8333 845.5,83.5C 846.492,83.6716 847.158,83.3382 847.5,82.5C 851.206,79.6869 853.706,77.0202 855,74.5C 855.231,72.8426 856.065,71.5093 857.5,70.5C 858.338,70.1583 858.672,69.4916 858.5,68.5C 859.774,67.8106 859.774,66.9772 858.5,66C 860.481,65.3946 860.815,64.3946 859.5,63C 861.344,60.1963 862.011,57.0297 861.5,53.5C 861.719,52.325 861.386,51.325 860.5,50.5C 859.893,50.6236 859.56,50.9569 859.5,51.5C 859.5,51.8333 859.5,52.1667 859.5,52.5C 858.662,52.8417 858.328,53.5084 858.5,54.5C 857.833,54.5 857.5,54.8333 857.5,55.5C 856.833,55.5 856.5,55.8333 856.5,56.5C 855.833,56.5 855.5,56.8333 855.5,57.5C 854.833,57.5 854.5,57.8333 854.5,58.5C 853.167,58.8333 853.167,59.1667 854.5,59.5C 852.635,61.5342 850.468,62.2008 848,61.5C 847.692,62.3081 847.192,62.9747 846.5,63.5C 842.613,63.7859 838.613,63.4526 834.5,62.5C 834.5,61.8333 834.167,61.5 833.5,61.5C 833.5,60.8333 833.167,60.5 832.5,60.5C 832.5,60.1667 832.5,59.8333 832.5,59.5C 833.167,59.5 833.5,59.1667 833.5,58.5C 834.5,58.5 835.5,58.5 836.5,58.5C 837.492,58.6716 838.158,58.3382 838.5,57.5C 839.833,57.1667 839.833,56.8333 838.5,56.5C 839.793,56.1254 841.126,55.7921 842.5,55.5C 843.5,55.1667 844.167,54.5 844.5,53.5C 845.833,52.8333 846.833,51.8333 847.5,50.5C 848.167,50.5 848.5,50.1667 848.5,49.5C 850.124,47.215 851.124,44.0483 851.5,40C 851.333,38.8333 851.167,37.6667 851,36.5C 849.334,37.3402 849.167,36.8402 850.5,35C 847.876,34.4236 847.209,33.0902 848.5,31C 846.667,29.1667 844.833,27.3333 843,25.5C 841.16,26.8331 840.66,26.6665 841.5,25C 840.675,23.3117 839.675,23.1451 838.5,24.5C 837.304,24.1543 837.304,23.6543 838.5,23C 837.756,21.9614 836.756,21.4614 835.5,21.5C 835.167,20.1667 834.833,20.1667 834.5,21.5C 833.508,21.6716 832.842,21.3382 832.5,20.5C 833.833,20.1667 833.833,19.8333 832.5,19.5C 832.5,18.8333 832.167,18.5 831.5,18.5C 830.833,18.5 830.5,18.8333 830.5,19.5C 827.302,18.9807 825.302,17.6473 824.5,15.5C 823.158,16.9023 822.324,16.5689 822,14.5C 821.282,15.4506 820.449,15.6172 819.5,15C 820.696,14.3457 820.696,13.8457 819.5,13.5C 818.833,13.8333 818.167,14.1667 817.5,14.5C 817.167,13.8333 816.833,13.1667 816.5,12.5C 815.197,13.7178 814.197,13.3845 813.5,11.5C 812.833,11.8333 812.167,12.1667 811.5,12.5C 810.304,12.1543 810.304,11.6543 811.5,11C 808.487,10.4978 805.487,9.99782 802.5,9.5C 800.393,8.53178 798.059,8.19845 795.5,8.5C 794.167,8.83333 794.167,9.16667 795.5,9.5C 795.5,10.1667 795.833,10.5 796.5,10.5C 797.167,10.5 797.833,10.5 798.5,10.5C 799.172,11.2674 800.005,11.9341 801,12.5C 802.84,11.1669 803.34,11.3335 802.5,13C 805.665,15.0883 809.165,18.255 813,22.5C 814.666,21.6598 814.833,22.1598 813.5,24C 814.253,25.487 815.086,25.6537 816,24.5C 816.464,25.0944 816.631,25.7611 816.5,26.5C 815.167,26.8333 815.167,27.1667 816.5,27.5C 817.73,27.9745 818.73,29.3078 819.5,31.5C 819.48,38.6967 819.48,45.8634 819.5,53C 817.431,53.3242 817.098,54.1575 818.5,55.5C 818.058,56.7387 817.391,57.7387 816.5,58.5C 816.167,57.1667 815.833,57.1667 815.5,58.5C 814.167,58.8333 814.167,59.1667 815.5,59.5C 815.672,60.4916 815.338,61.1583 814.5,61.5C 814.167,60.1667 813.833,60.1667 813.5,61.5C 812.833,61.5 812.5,61.8333 812.5,62.5C 811.833,62.5 811.5,62.8333 811.5,63.5C 810.833,63.5 810.5,63.8333 810.5,64.5C 809.833,64.5 809.5,64.8333 809.5,65.5C 808.833,65.5 808.5,65.8333 808.5,66.5C 807.508,66.3284 806.842,66.6618 806.5,67.5C 805.833,67.5 805.5,67.8333 805.5,68.5C 804.778,68.9175 804.278,69.5842 804,70.5C 802.984,69.3659 802.317,69.6992 802,71.5C 801.023,70.2264 800.189,70.2264 799.5,71.5C 792.82,72.7906 786.154,72.7906 779.5,71.5C 779.167,70.8333 778.833,70.1667 778.5,69.5C 779.167,69.5 779.5,69.1667 779.5,68.5C 782.12,67.2475 784.787,65.9141 787.5,64.5C 788.086,64.7093 788.586,65.0426 789,65.5C 789.956,64.4214 790.789,63.2547 791.5,62C 792.449,61.3828 793.282,61.5494 794,62.5C 795.204,61.5294 795.704,60.5294 795.5,59.5C 796.086,59.7093 796.586,60.0426 797,60.5C 800.756,57.1692 803.423,54.1692 805,51.5C 806.039,50.7562 806.539,49.7562 806.5,48.5C 807.731,45.3342 808.731,41.6676 809.5,37.5C 809.341,33.7953 808.341,30.462 806.5,27.5C 807.833,27.1667 807.833,26.8333 806.5,26.5C 806.672,25.5084 806.338,24.8417 805.5,24.5C 803.892,21.3128 801.559,19.8128 798.5,20C 799.258,18.6361 798.758,17.4695 797,16.5C 795.16,17.8331 794.66,17.6665 795.5,16C 794.351,14.2559 793.017,14.0892 791.5,15.5C 790.304,15.1543 790.304,14.6543 791.5,14C 774.509,9.36942 757.509,9.36942 740.5,14C 731.999,16.7887 723.999,18.9554 716.5,20.5C 712.38,21.4881 708.713,22.4881 705.5,23.5C 703.337,25.4265 701.004,26.0932 698.5,25.5C 697.5,25.5 696.5,25.5 695.5,25.5C 694.508,25.3284 693.842,25.6618 693.5,26.5C 693.167,26.5 692.833,26.5 692.5,26.5C 691.508,26.3284 690.842,26.6618 690.5,27.5C 689.318,29.0995 687.985,29.4328 686.5,28.5C 685.803,30.3845 684.803,30.7178 683.5,29.5C 683.167,30.1667 682.833,30.8333 682.5,31.5C 681.833,31.1667 681.167,30.8333 680.5,30.5C 680.167,31.1667 679.833,31.8333 679.5,32.5C 678.833,32.1667 678.167,31.8333 677.5,31.5C 677.167,32.1667 676.833,32.8333 676.5,33.5C 675.833,33.1667 675.167,32.8333 674.5,32.5C 674.167,33.1667 673.833,33.8333 673.5,34.5C 672.914,34.2907 672.414,33.9574 672,33.5C 670.742,36.0553 668.909,36.7219 666.5,35.5C 665.304,35.8457 665.304,36.3457 666.5,37C 665.007,38.3681 663.507,38.5348 662,37.5C 660.218,40.2351 657.885,41.2351 655,40.5C 653.218,43.2351 650.885,44.2351 648,43.5C 647.676,45.5689 646.842,45.9023 645.5,44.5C 644.256,46.7236 641.923,48.3902 638.5,49.5C 637.158,48.0977 636.324,48.4311 636,50.5C 634.16,49.1669 633.66,49.3335 634.5,51C 628.267,54.0724 622.934,56.2391 618.5,57.5C 617.508,57.3284 616.842,57.6618 616.5,58.5C 609.373,63.088 601.373,67.4213 592.5,71.5C 591.914,71.2907 591.414,70.9574 591,70.5C 589.333,71.8333 587.667,73.1667 586,74.5C 584.16,73.1669 583.66,73.3335 584.5,75C 581.639,77.1413 578.639,77.9746 575.5,77.5C 574.833,77.8333 574.167,78.1667 573.5,78.5C 572.167,78.8333 572.167,79.1667 573.5,79.5C 566.169,81.1883 559.502,83.855 553.5,87.5C 553.5,86.8333 553.167,86.5 552.5,86.5C 551.508,86.3284 550.842,86.6618 550.5,87.5C 550.167,87.5 549.833,87.5 549.5,87.5C 548.508,87.3284 547.842,87.6618 547.5,88.5C 546.778,88.9175 546.278,89.5842 546,90.5C 544.413,89.273 543.079,89.6063 542,91.5C 539.4,90.6933 537.066,91.36 535,93.5C 534.586,93.0426 534.086,92.7093 533.5,92.5C 531.343,93.0505 529.343,93.7171 527.5,94.5C 517.833,94.5 508.167,94.5 498.5,94.5C 494.249,93.0857 490.249,91.7523 486.5,90.5C 487.833,90.1667 487.833,89.8333 486.5,89.5C 486.5,88.8333 486.167,88.5 485.5,88.5C 484.833,88.5 484.5,88.8333 484.5,89.5C 483.833,88.8333 483.167,88.1667 482.5,87.5C 482.167,86.1667 481.833,86.1667 481.5,87.5C 479.621,87.6068 479.288,87.1068 480.5,86C 479.956,85.2828 479.289,84.7828 478.5,84.5C 478.167,83.5 477.5,82.8333 476.5,82.5C 475.833,82.1667 475.167,81.8333 474.5,81.5C 474.672,80.5084 474.338,79.8417 473.5,79.5C 472.992,77.7673 472.159,77.434 471,78.5C 472.101,76.2076 471.268,74.7076 468.5,74C 468.254,72.9399 468.254,71.7732 468.5,70.5C 467.975,69.8076 467.308,69.3076 466.5,69C 466.5,63 466.5,57 466.5,51C 467.167,50.6667 467.833,50.3333 468.5,50C 467.549,49.2825 467.383,48.4491 468,47.5C 469.992,46.3353 471.825,45.002 473.5,43.5C 474.167,43.5 474.5,43.1667 474.5,42.5C 475.833,42.1667 475.833,41.8333 474.5,41.5C 476.158,39.3464 478.158,39.0131 480.5,40.5C 481.492,40.3284 482.158,40.6618 482.5,41.5C 482.5,41.8333 482.5,42.1667 482.5,42.5C 481.833,42.5 481.5,42.8333 481.5,43.5C 480.167,43.8333 480.167,44.1667 481.5,44.5C 481.426,46.4109 480.426,47.5776 478.5,48C 479.634,49.016 479.301,49.6827 477.5,50C 478.833,51.8402 478.666,52.3402 477,51.5C 476.833,53 476.667,54.5 476.5,56C 477.038,59.0189 477.704,61.5189 478.5,63.5C 479.407,66.1315 481.407,68.4648 484.5,70.5C 484.842,71.3382 485.508,71.6716 486.5,71.5C 486.842,72.3382 487.508,72.6716 488.5,72.5C 489.189,73.7736 490.023,73.7736 491,72.5C 491.324,74.5689 492.158,74.9023 493.5,73.5C 493.833,74.1667 494.167,74.8333 494.5,75.5C 495.183,75.1373 495.85,74.8039 496.5,74.5C 494.872,72.6258 494.538,70.6258 495.5,68.5C 493.668,63.6951 493.001,58.8618 493.5,54C 495.569,53.6758 495.902,52.8425 494.5,51.5C 496.969,49.5571 499.635,47.0571 502.5,44C 502.167,43.6667 501.833,43.3333 501.5,43C 503.387,43.4229 505.387,43.2563 507.5,42.5C 505.834,45.825 504.834,49.9916 504.5,55C 504.651,59.4846 505.651,62.9846 507.5,65.5C 507.369,66.2389 507.536,66.9056 508,67.5C 508.92,67.9302 509.753,68.2635 510.5,68.5C 510.291,69.086 509.957,69.586 509.5,70C 511.333,71.8333 513.167,73.6667 515,75.5C 515.414,75.0426 515.914,74.7093 516.5,74.5C 516.296,75.5294 516.796,76.5294 518,77.5C 519.507,76.4652 521.007,76.6319 522.5,78C 522.167,78.3333 521.833,78.6667 521.5,79C 534.316,80.5778 546.982,79.5778 559.5,76C 560.325,74.3117 561.325,74.1451 562.5,75.5C 563.192,74.9747 563.692,74.3081 564,73.5C 564.671,74.2524 565.504,74.5858 566.5,74.5C 567.492,74.6716 568.158,74.3382 568.5,73.5C 574.92,69.6996 582.087,66.033 590,62.5C 591,62.5 592,62.5 593,62.5C 593.317,60.6992 593.984,60.3659 595,61.5C 595.317,59.6992 595.984,59.3659 597,60.5C 597.317,58.6992 597.984,58.3659 599,59.5C 599.317,57.6992 599.984,57.3659 601,58.5C 601.317,56.6992 601.984,56.3659 603,57.5C 603.342,55.3808 604.175,55.0474 605.5,56.5C 606.167,56.5 606.5,56.1667 606.5,55.5C 607.167,55.5 607.5,55.1667 607.5,54.5C 607.833,54.5 608.167,54.5 608.5,54.5C 611.167,54.1667 611.167,53.8333 608.5,53.5C 604.5,53.5 600.5,53.5 596.5,53.5C 593.72,53.0548 591.053,53.0548 588.5,53.5C 587.304,53.1543 587.304,52.6543 588.5,52C 587.551,51.3828 586.718,51.5494 586,52.5C 585.676,50.4311 584.842,50.0977 583.5,51.5C 582.265,50.6602 581.265,49.6602 580.5,48.5C 580.167,47.1667 579.833,47.1667 579.5,48.5C 577.937,46.4035 575.771,44.0702 573,41.5C 571.334,42.3402 571.167,41.8402 572.5,40C 571.747,38.513 570.914,38.3463 570,39.5C 568.632,38.0069 568.465,36.5069 569.5,35C 568.833,34.6667 568.167,34.3333 567.5,34C 568.43,32.6047 568.43,31.1047 567.5,29.5C 568.782,25.3858 569.615,21.3858 570,17.5C 570.333,17.8333 570.667,18.1667 571,18.5C 572.833,16.6667 574.667,14.8333 576.5,13C 575.66,11.3335 576.16,11.1669 578,12.5C 581.605,9.95939 582.439,10.9594 580.5,15.5C 579.167,15.8333 579.167,16.1667 580.5,16.5C 579.067,18.9581 578.067,21.6247 577.5,24.5C 577.716,26.3839 578.383,28.0506 579.5,29.5C 578.098,30.8425 578.431,31.6758 580.5,32C 579.366,33.016 579.699,33.6827 581.5,34C 580.366,35.016 580.699,35.6827 582.5,36C 581.402,36.7697 581.402,37.603 582.5,38.5C 582.833,39.5 583.5,40.1667 584.5,40.5C 585.794,41.2899 586.961,42.2899 588,43.5C 590.09,42.2092 591.424,42.8758 592,45.5C 593.016,44.3659 593.683,44.6992 594,46.5C 595.84,45.1669 596.34,45.3335 595.5,47C 604.584,49.1502 613.584,48.8169 622.5,46C 621.304,45.3457 621.304,44.8457 622.5,44.5C 623.167,44.8333 623.833,45.1667 624.5,45.5C 624.833,44.8333 625.167,44.1667 625.5,43.5C 626.167,43.8333 626.833,44.1667 627.5,44.5C 628.936,42.1782 630.77,41.5115 633,42.5C 634.782,39.7649 637.115,38.7649 640,39.5C 640.333,38.8333 640.667,38.1667 641,37.5C 642.84,38.8331 643.34,38.6665 642.5,37C 644.591,35.3253 646.758,34.8253 649,35.5C 649.333,34.8333 649.667,34.1667 650,33.5C 651.84,34.8331 652.34,34.6665 651.5,33C 653.167,32.1667 654.833,31.3333 656.5,30.5C 657.833,30.5 659.167,30.5 660.5,30.5C 661.696,30.1543 661.696,29.6543 660.5,29C 662.11,27.5053 663.776,27.3387 665.5,28.5C 666.696,28.1543 666.696,27.6543 665.5,27C 667.11,25.5053 668.776,25.3387 670.5,26.5C 670.833,25.8333 671.167,25.1667 671.5,24.5C 672.803,25.7178 673.803,25.3845 674.5,23.5C 675.803,24.7178 676.803,24.3845 677.5,22.5C 678.903,22.3602 680.403,22.3602 682,22.5C 682.605,20.5188 683.605,20.1854 685,21.5C 686.667,20.5 688.333,19.5 690,18.5C 692.412,19.4748 694.412,18.8081 696,16.5C 697.406,17.6682 698.572,17.3348 699.5,15.5C 702.308,16.4038 704.808,15.7371 707,13.5C 708.395,14.8146 709.395,14.4812 710,12.5C 710.561,13.0219 711.228,13.3552 712,13.5C 741.803,3.62242 772.303,0.122416 803.5,3C 809.552,3.97714 815.552,5.1438 821.5,6.5 Z M 833.5,58.5 C 833.5,59.1667 833.167,59.5 832.5,59.5C 831.453,58.9222 831.62,58.2555 833,57.5C 833.399,57.7284 833.565,58.0618 833.5,58.5 Z M 779.5,68.5 C 779.5,69.1667 779.167,69.5 778.5,69.5C 777.453,68.9222 777.62,68.2555 779,67.5C 779.399,67.7284 779.565,68.0618 779.5,68.5 Z M 496.5,74.5 C 497.492,74.3284 498.158,74.6618 498.5,75.5C 497.075,77.0311 496.409,76.6977 496.5,74.5 Z M 831.5,88.5 C 831.5,89.1667 831.167,89.5 830.5,89.5C 829.453,88.9222 829.62,88.2555 831,87.5C 831.399,87.7284 831.565,88.0618 831.5,88.5 Z"/></g>
<g><path style="opacity:1" fill="#cc4e3c" d="M 821.5,5.5 C 822.833,6.16667 822.833,6.16667 821.5,5.5 Z"/></g>
<g><path style="opacity:1" fill="#cc4e3c" d="M 824.5,6.5 C 825.833,7.16667 825.833,7.16667 824.5,6.5 Z"/></g>
<g><path style="opacity:1" fill="#cc4e3c" d="M 74.5,8.5 C 74.5,8.16667 74.5,7.83333 74.5,7.5C 75.4916,7.32842 76.1583,7.66175 76.5,8.5C 76.5,9.16667 76.1667,9.5 75.5,9.5C 74.8333,9.5 74.5,9.16667 74.5,8.5 Z"/></g>
<g><path style="opacity:1" fill="#cc4e3c" d="M 159.5,8.5 C 160.833,9.16667 160.833,9.16667 159.5,8.5 Z"/></g>
<g><path style="opacity:1" fill="#cc4e3c" d="M 294.5,9.5 C 293.833,8.16667 293.833,8.16667 294.5,9.5 Z"/></g>
<g><path style="opacity:1" fill="#b9bcb3" d="M 795.5,8.5 C 798.059,8.19845 800.393,8.53178 802.5,9.5C 801.041,9.43255 799.708,9.76589 798.5,10.5C 797.833,9.16667 797.167,9.16667 796.5,10.5C 795.833,10.5 795.5,10.1667 795.5,9.5C 795.5,9.16667 795.5,8.83333 795.5,8.5 Z"/></g>
<g><path style="opacity:1" fill="#e3e5e1" d="M 67.5,14.5 C 66.5,16.1667 65.1667,17.5 63.5,18.5C 62.8817,16.3364 63.8817,14.6697 66.5,13.5C 67.1067,13.6236 67.44,13.9569 67.5,14.5 Z"/></g>
<g><path style="opacity:1" fill="#e6e6e4" d="M 838.5,13.5 C 839.492,13.3284 840.158,13.6618 840.5,14.5C 839.833,14.5 839.5,14.8333 839.5,15.5C 838.833,15.5 838.5,15.1667 838.5,14.5C 838.5,14.1667 838.5,13.8333 838.5,13.5 Z"/></g>
<g><path style="opacity:1" fill="#cc4e3c" d="M 78.5,14.5 C 78.8333,14.5 79.1667,14.5 79.5,14.5C 79.3147,15.1701 78.9813,15.1701 78.5,14.5 Z"/></g>
<g><path style="opacity:1" fill="#cc4e3c" d="M 295.5,14.5 C 294.833,15.1667 294.833,15.1667 295.5,14.5 Z"/></g>
<g><path style="opacity:1" fill="#cc4e3c" d="M 28.5,15.5 C 28.5,15.8333 28.5,16.1667 28.5,16.5C 28.5,17.1667 28.1667,17.5 27.5,17.5C 25.9689,16.0755 26.3023,15.4088 28.5,15.5 Z"/></g>
<g><path style="opacity:1" fill="#cc4e3c" d="M 580.5,15.5 C 581.833,16.1667 581.833,16.1667 580.5,15.5 Z"/></g>
<g><path style="opacity:1" fill="#cc4e3c" d="M 842.5,15.5 C 843.833,16.1667 843.833,16.1667 842.5,15.5 Z"/></g>
<g><path style="opacity:1" fill="#cc4e3c" d="M 75.5,16.5 C 75.8333,16.5 76.1667,16.5 76.5,16.5C 76.3147,17.1701 75.9813,17.1701 75.5,16.5 Z"/></g>
<g><path style="opacity:1" fill="#faf9ef" d="M 25.5,18.5 C 25.1583,19.3382 24.4916,19.6716 23.5,19.5C 22.2617,19.19 22.2617,18.69 23.5,18C 24.4368,17.3083 25.1034,17.475 25.5,18.5 Z"/></g>
<g><path style="opacity:1" fill="#cc4e3c" d="M 74.5,17.5 C 74.8333,17.5 75.1667,17.5 75.5,17.5C 75.3147,18.1701 74.9813,18.1701 74.5,17.5 Z"/></g>
<g><path style="opacity:1" fill="#cc4e3c" d="M 40.5,18.5 C 40.8333,18.5 41.1667,18.5 41.5,18.5C 41.3147,19.1701 40.9813,19.1701 40.5,18.5 Z"/></g>
<g><path style="opacity:1" fill="#cc4e3c" d="M 73.5,18.5 C 73.8333,18.5 74.1667,18.5 74.5,18.5C 74.3147,19.1701 73.9813,19.1701 73.5,18.5 Z"/></g>
<g><path style="opacity:1" fill="#cc4e3c" d="M 847.5,18.5 C 848.833,19.1667 848.833,19.1667 847.5,18.5 Z"/></g>
<g><path style="opacity:1" fill="#cc4e3c" d="M 72.5,19.5 C 72.8333,19.5 73.1667,19.5 73.5,19.5C 73.3147,20.1701 72.9813,20.1701 72.5,19.5 Z"/></g>
<g><path style="opacity:1" fill="#ebedeb" d="M 831.5,18.5 C 832.167,18.5 832.5,18.8333 832.5,19.5C 832.5,19.8333 832.5,20.1667 832.5,20.5C 831.508,20.6716 830.842,20.3382 830.5,19.5C 831.167,19.5 831.5,19.1667 831.5,18.5 Z"/></g>
<g><path style="opacity:1" fill="#e1e3e1" d="M 21.5,21.5 C 21.1667,22.5 20.5,23.1667 19.5,23.5C 18.1474,22.1329 18.4807,21.1329 20.5,20.5C 21.1067,20.6236 21.44,20.9569 21.5,21.5 Z"/></g>
<g><path style="opacity:1" fill="#cc4e3c" d="M 71.5,20.5 C 71.8333,20.5 72.1667,20.5 72.5,20.5C 72.3147,21.1701 71.9813,21.1701 71.5,20.5 Z"/></g>
<g><path style="opacity:1" fill="#cc4e3c" d="M 199.5,20.5 C 200.833,21.1667 200.833,21.1667 199.5,20.5 Z"/></g>
<g><path style="opacity:1" fill="#cc4e3c" d="M 716.5,20.5 C 717.833,21.1667 717.833,21.1667 716.5,20.5 Z"/></g>
<g><path style="opacity:1" fill="#cc4e3c" d="M 35.5,21.5 C 35.8333,21.5 36.1667,21.5 36.5,21.5C 36.3147,22.1701 35.9813,22.1701 35.5,21.5 Z"/></g>
<g><path style="opacity:1" fill="#cc4e3c" d="M 70.5,21.5 C 70.8333,21.5 71.1667,21.5 71.5,21.5C 71.3147,22.1701 70.9813,22.1701 70.5,21.5 Z"/></g>
<g><path style="opacity:1" fill="#cc4e3c" d="M 834.5,21.5 C 834.833,21.5 835.167,21.5 835.5,21.5C 835.315,22.1701 834.981,22.1701 834.5,21.5 Z"/></g>
<g><path style="opacity:1" fill="#cc4e3c" d="M 69.5,22.5 C 69.8333,22.5 70.1667,22.5 70.5,22.5C 70.3147,23.1701 69.9813,23.1701 69.5,22.5 Z"/></g>
<g><path style="opacity:1" fill="#cc4e3c" d="M 204.5,22.5 C 205.833,23.1667 205.833,23.1667 204.5,22.5 Z"/></g>
<g><path style="opacity:1" fill="#cc4e3c" d="M 32.5,23.5 C 32.8333,23.5 33.1667,23.5 33.5,23.5C 33.3147,24.1701 32.9813,24.1701 32.5,23.5 Z"/></g>
<g><path style="opacity:1" fill="#cc4e3c" d="M 68.5,23.5 C 68.8333,23.5 69.1667,23.5 69.5,23.5C 69.3147,24.1701 68.9813,24.1701 68.5,23.5 Z"/></g>
<g><path style="opacity:1" fill="#cc4e3c" d="M 705.5,23.5 C 706.833,24.1667 706.833,24.1667 705.5,23.5 Z"/></g>
<g><path style="opacity:1" fill="#ededed" d="M 31.5,24.5 C 31.8333,24.5 32.1667,24.5 32.5,24.5C 32.0269,25.9063 31.0269,26.573 29.5,26.5C 29.5,25.1667 30.1667,24.5 31.5,24.5 Z"/></g>
<g><path style="opacity:1" fill="#f1f3f1" d="M 858.5,27.5 C 856.973,27.573 855.973,26.9063 855.5,25.5C 857.07,24.4407 858.403,24.9407 859.5,27C 859.272,27.3988 858.938,27.5654 858.5,27.5 Z"/></g>
<g><path style="opacity:1" fill="#cc4e3c" d="M 698.5,25.5 C 699.833,26.1667 699.833,26.1667 698.5,25.5 Z"/></g>
<g><path style="opacity:1" fill="#ebebeb" d="M 805.5,24.5 C 806.338,24.8417 806.672,25.5084 806.5,26.5C 806.5,26.8333 806.5,27.1667 806.5,27.5C 805.733,26.828 805.066,25.9947 804.5,25C 804.728,24.6012 805.062,24.4346 805.5,24.5 Z"/></g>
<g><path style="opacity:1" fill="#e2e3dd" d="M 693.5,26.5 C 693.842,25.6618 694.508,25.3284 695.5,25.5C 696.504,27.6773 695.838,28.0107 693.5,26.5 Z"/></g>
<g><path style="opacity:1" fill="#cc4e3c" d="M 816.5,26.5 C 817.833,27.1667 817.833,27.1667 816.5,26.5 Z"/></g>
<g><path style="opacity:1" fill="#e8e8e8" d="M 692.5,26.5 C 692.289,28.4241 691.623,28.7574 690.5,27.5C 690.842,26.6618 691.508,26.3284 692.5,26.5 Z"/></g>
<g><path style="opacity:1" fill="#cc4e3c" d="M 27.5,28.5 C 27.8333,28.5 28.1667,28.5 28.5,28.5C 28.3147,29.1701 27.9813,29.1701 27.5,28.5 Z"/></g>
<g><path style="opacity:1" fill="#cc4e3c" d="M 26.5,29.5 C 26.8333,29.5 27.1667,29.5 27.5,29.5C 27.3147,30.1701 26.9813,30.1701 26.5,29.5 Z"/></g>
<g><path style="opacity:1" fill="#e1e4e1" d="M 220.5,29.5 C 222.698,29.4088 223.031,30.0755 221.5,31.5C 220.833,31.5 220.5,31.1667 220.5,30.5C 220.5,30.1667 220.5,29.8333 220.5,29.5 Z"/></g>
<g><path style="opacity:1" fill="#ededed" d="M 862.5,32.5 C 861.662,32.1583 861.328,31.4916 861.5,30.5C 861.81,29.2617 862.31,29.2617 863,30.5C 863.692,31.4368 863.525,32.1034 862.5,32.5 Z"/></g>
<g><path style="opacity:1" fill="#cc4e3c" d="M 223.5,30.5 C 224.833,31.1667 224.833,31.1667 223.5,30.5 Z"/></g>
<g><path style="opacity:1" fill="#cc4e3c" d="M 25.5,31.5 C 26.8333,32.1667 26.8333,32.1667 25.5,31.5 Z"/></g>
<g><path style="opacity:1" fill="#cc4e3c" d="M 306.5,31.5 C 307.833,32.1667 307.833,32.1667 306.5,31.5 Z"/></g>
<g><path style="opacity:1" fill="#cc4e3c" d="M 305.5,33.5 C 306.833,34.1667 306.833,34.1667 305.5,33.5 Z"/></g>
<g><path style="opacity:1" fill="#cc4e3c" d="M 232.5,34.5 C 233.833,35.1667 233.833,35.1667 232.5,34.5 Z"/></g>
<g><path style="opacity:1" fill="#cc4e3c" d="M 304.5,35.5 C 305.833,36.1667 305.833,36.1667 304.5,35.5 Z"/></g>
<g><path style="opacity:1" fill="#cc4e3c" d="M 391.5,37.5 C 390.833,36.1667 390.833,36.1667 391.5,37.5 Z"/></g>
<g><path style="opacity:1" fill="#cc4e3c" d="M 395.5,36.5 C 396.833,37.1667 396.833,37.1667 395.5,36.5 Z"/></g>
<g><path style="opacity:1" fill="#e0e3dd" d="M 584.5,40.5 C 583.5,40.1667 582.833,39.5 582.5,38.5C 584.833,37.5 585.5,38.1667 584.5,40.5 Z"/></g>
<g><path style="opacity:1" fill="#cc4e3c" d="M 867.5,37.5 C 868.833,38.1667 868.833,38.1667 867.5,37.5 Z"/></g>
<g><path style="opacity:1" fill="#cc4e3c" d="M 302.5,38.5 C 302.833,38.5 303.167,38.5 303.5,38.5C 303.315,39.1701 302.981,39.1701 302.5,38.5 Z"/></g>
<g><path style="opacity:1" fill="#b3b5af" d="M 391.5,37.5 C 392.833,37.5 394.167,37.5 395.5,37.5C 395.5,37.8333 395.5,38.1667 395.5,38.5C 393.007,38.1307 392.34,38.7973 393.5,40.5C 392.883,40.6107 392.383,40.944 392,41.5C 391.51,40.2068 391.343,38.8734 391.5,37.5 Z"/></g>
<g><path style="opacity:1" fill="#cc4e3c" d="M 301.5,39.5 C 301.833,39.5 302.167,39.5 302.5,39.5C 301.833,42.1667 300.167,43.8333 297.5,44.5C 297.5,44.1667 297.5,43.8333 297.5,43.5C 299.194,42.4726 300.527,41.1392 301.5,39.5 Z"/></g>
<g><path style="opacity:1" fill="#d6d8d5" d="M 480.5,40.5 C 481.601,39.4017 482.934,39.235 484.5,40C 483.944,40.3826 483.611,40.8826 483.5,41.5C 483.167,41.5 482.833,41.5 482.5,41.5C 482.158,40.6618 481.492,40.3284 480.5,40.5 Z"/></g>
<g><path style="opacity:1" fill="#cc4e3c" d="M 247.5,40.5 C 248.833,41.1667 248.833,41.1667 247.5,40.5 Z"/></g>
<g><path style="opacity:1" fill="#eeeeee" d="M 285.5,41.5 C 285.5,42.1667 285.167,42.5 284.5,42.5C 283.321,40.591 283.654,40.2576 285.5,41.5 Z"/></g>
<g><path style="opacity:1" fill="#e9e9e9" d="M 405.5,43.5 C 405.167,43.5 404.833,43.5 404.5,43.5C 403.5,43.1667 402.833,42.5 402.5,41.5C 404.332,40.2819 405.332,40.9486 405.5,43.5 Z"/></g>
<g><path style="opacity:1" fill="#e8e8e8" d="M 474.5,41.5 C 474.5,41.8333 474.5,42.1667 474.5,42.5C 474.5,43.1667 474.167,43.5 473.5,43.5C 471.969,42.0755 472.302,41.4088 474.5,41.5 Z"/></g>
<g><path style="opacity:1" fill="#cc4e3c" d="M 483.5,41.5 C 484.833,42.1667 484.833,42.1667 483.5,41.5 Z"/></g>
<g><path style="opacity:1" fill="#cc4e3c" d="M 507.5,41.5 C 508.833,42.1667 508.833,42.1667 507.5,41.5 Z"/></g>
<g><path style="opacity:1" fill="#cc4e3c" d="M 229.5,42.5 C 228.833,43.1667 228.833,43.1667 229.5,42.5 Z"/></g>
<g><path style="opacity:1" fill="#cc4e3c" d="M 482.5,42.5 C 482.833,42.5 483.167,42.5 483.5,42.5C 483.315,43.1701 482.981,43.1701 482.5,42.5 Z"/></g>
<g><path style="opacity:1" fill="#cc4e3c" d="M 405.5,43.5 C 406.833,44.1667 406.833,44.1667 405.5,43.5 Z"/></g>
<g><path style="opacity:1" fill="#cc4e3c" d="M 481.5,43.5 C 481.833,43.5 482.167,43.5 482.5,43.5C 482.315,44.1701 481.981,44.1701 481.5,43.5 Z"/></g>
<g><path style="opacity:1" fill="#cc4e3c" d="M 296.5,44.5 C 296.833,44.5 297.167,44.5 297.5,44.5C 297.315,45.1701 296.981,45.1701 296.5,44.5 Z"/></g>
<g><path style="opacity:1" fill="#cc4e3c" d="M 295.5,45.5 C 295.833,45.5 296.167,45.5 296.5,45.5C 296.315,46.1701 295.981,46.1701 295.5,45.5 Z"/></g>
<g><path style="opacity:1" fill="#cc4e3c" d="M 406.5,45.5 C 407.833,46.1667 407.833,46.1667 406.5,45.5 Z"/></g>
<g><path style="opacity:1" fill="#cc4e3c" d="M 240.5,47.5 C 239.833,48.1667 239.833,48.1667 240.5,47.5 Z"/></g>
<g><path style="opacity:1" fill="#cc4e3c" d="M 806.5,48.5 C 805.833,47.1667 805.833,47.1667 806.5,48.5 Z"/></g>
<g><path style="opacity:1" fill="#cc4e3c" d="M 579.5,48.5 C 579.833,48.5 580.167,48.5 580.5,48.5C 580.315,49.1701 579.981,49.1701 579.5,48.5 Z"/></g>
<g><path style="opacity:1" fill="#ebeeeb" d="M 848.5,49.5 C 848.5,50.1667 848.167,50.5 847.5,50.5C 846.258,48.654 846.591,48.3207 848.5,49.5 Z"/></g>
<g><path style="opacity:1" fill="#faf9ed" d="M 72.5,52.5 C 71.6618,52.1583 71.3284,51.4916 71.5,50.5C 71.4346,50.0618 71.6012,49.7284 72,49.5C 72.3742,50.4162 72.8742,51.2496 73.5,52C 73.2716,52.3988 72.9382,52.5654 72.5,52.5 Z"/></g>
<g><path style="opacity:1" fill="#edede9" d="M 246.5,49.5 C 247.167,49.5 247.5,49.8333 247.5,50.5C 247.5,50.8333 247.5,51.1667 247.5,51.5C 246.508,51.6716 245.842,51.3382 245.5,50.5C 246.167,50.5 246.5,50.1667 246.5,49.5 Z"/></g>
<g><path style="opacity:1" fill="#e2e3e1" d="M 283.5,50.5 C 283.842,49.6618 284.508,49.3284 285.5,49.5C 286.504,51.6773 285.838,52.0107 283.5,50.5 Z"/></g>
<g><path style="opacity:1" fill="#cc4e3c" d="M 32.5,51.5 C 33.8333,52.1667 33.8333,52.1667 32.5,51.5 Z"/></g>
<g><path style="opacity:1" fill="#e9e9e8" d="M 844.5,53.5 C 844.167,54.5 843.5,55.1667 842.5,55.5C 841.342,54.0502 841.842,53.0502 844,52.5C 844.399,52.7284 844.565,53.0618 844.5,53.5 Z"/></g>
<g><path style="opacity:1" fill="#dce2d9" d="M 859.5,51.5 C 859.56,50.9569 859.893,50.6236 860.5,50.5C 861.386,51.325 861.719,52.325 861.5,53.5C 860.508,53.6716 859.842,53.3382 859.5,52.5C 860.833,52.1667 860.833,51.8333 859.5,51.5 Z"/></g>
<g><path style="opacity:1" fill="#ecece2" d="M 17.5,52.5 C 18.8333,53.1667 19.8333,54.1667 20.5,55.5C 20.0954,56.5498 19.4288,56.5498 18.5,55.5C 17.7132,54.7579 17.0465,53.9246 16.5,53C 16.7284,52.6012 17.0618,52.4346 17.5,52.5 Z"/></g>
<g><path style="opacity:1" fill="#cc4e3c" d="M 253.5,53.5 C 252.833,54.1667 252.833,54.1667 253.5,53.5 Z"/></g>
<g><path style="opacity:1" fill="#cc4e3c" d="M 271.5,53.5 C 272.833,54.1667 272.833,54.1667 271.5,53.5 Z"/></g>
<g><path style="opacity:1" fill="#dee2de" d="M 596.5,53.5 C 600.5,53.5 604.5,53.5 608.5,53.5C 608.5,53.8333 608.5,54.1667 608.5,54.5C 608.167,54.5 607.833,54.5 607.5,54.5C 606.833,54.5 606.5,54.8333 606.5,55.5C 606.5,56.1667 606.167,56.5 605.5,56.5C 602.797,54.89 599.797,53.89 596.5,53.5 Z"/></g>
<g><path style="opacity:1" fill="#cc4e3c" d="M 77.5,56.5 C 76.5084,56.6716 75.8417,56.3382 75.5,55.5C 75.4346,55.0618 75.6012,54.7284 76,54.5C 76.7504,55.1258 77.5838,55.6258 78.5,56C 78.2716,56.3988 77.9382,56.5654 77.5,56.5 Z"/></g>
<g><path style="opacity:1" fill="#cc4e3c" d="M 255.5,54.5 C 254.833,55.1667 254.833,55.1667 255.5,54.5 Z"/></g>
<g><path style="opacity:1" fill="#cc4e3c" d="M 273.5,54.5 C 274.833,55.1667 274.833,55.1667 273.5,54.5 Z"/></g>
<g><path style="opacity:1" fill="#cc4e3c" d="M 858.5,54.5 C 859.833,55.1667 859.833,55.1667 858.5,54.5 Z"/></g>
<g><path style="opacity:1" fill="#cc4e3c" d="M 257.5,55.5 C 256.833,56.1667 256.833,56.1667 257.5,55.5 Z"/></g>
<g><path style="opacity:1" fill="#cc4e3c" d="M 275.5,55.5 C 276.833,56.1667 276.833,56.1667 275.5,55.5 Z"/></g>
<g><path style="opacity:1" fill="#cc4e3c" d="M 857.5,55.5 C 857.833,55.5 858.167,55.5 858.5,55.5C 858.315,56.1701 857.981,56.1701 857.5,55.5 Z"/></g>
<g><path style="opacity:1" fill="#cc4e3c" d="M 259.5,56.5 C 258.833,57.1667 258.833,57.1667 259.5,56.5 Z"/></g>
<g><path style="opacity:1" fill="#e6e7e5" d="M 838.5,56.5 C 838.5,56.8333 838.5,57.1667 838.5,57.5C 838.158,58.3382 837.492,58.6716 836.5,58.5C 836.5,57.1667 837.167,56.5 838.5,56.5 Z"/></g>
<g><path style="opacity:1" fill="#cc4e3c" d="M 856.5,56.5 C 856.833,56.5 857.167,56.5 857.5,56.5C 857.315,57.1701 856.981,57.1701 856.5,56.5 Z"/></g>
<g><path style="opacity:1" fill="#cc4e3c" d="M 261.5,57.5 C 260.833,58.1667 260.833,58.1667 261.5,57.5 Z"/></g>
<g><path style="opacity:1" fill="#cc4e3c" d="M 618.5,57.5 C 619.833,58.1667 619.833,58.1667 618.5,57.5 Z"/></g>
<g><path style="opacity:1" fill="#cc4e3c" d="M 855.5,57.5 C 855.833,57.5 856.167,57.5 856.5,57.5C 856.315,58.1701 855.981,58.1701 855.5,57.5 Z"/></g>
<g><path style="opacity:1" fill="#cc4e3c" d="M 42.5,58.5 C 43.8333,59.1667 43.8333,59.1667 42.5,58.5 Z"/></g>
<g><path style="opacity:1" fill="#cc4e3c" d="M 263.5,58.5 C 262.833,59.1667 262.833,59.1667 263.5,58.5 Z"/></g>
<g><path style="opacity:1" fill="#cc4e3c" d="M 616.5,58.5 C 617.833,59.1667 617.833,59.1667 616.5,58.5 Z"/></g>
<g><path style="opacity:1" fill="#cc4e3c" d="M 815.5,58.5 C 815.833,58.5 816.167,58.5 816.5,58.5C 816.315,59.1701 815.981,59.1701 815.5,58.5 Z"/></g>
<g><path style="opacity:1" fill="#cc4e3c" d="M 854.5,58.5 C 854.833,58.5 855.167,58.5 855.5,58.5C 855.315,59.1701 854.981,59.1701 854.5,58.5 Z"/></g>
<g><path style="opacity:1" fill="#cc4e3c" d="M 41.5,59.5 C 41.8333,59.5 42.1667,59.5 42.5,59.5C 42.3147,60.1701 41.9813,60.1701 41.5,59.5 Z"/></g>
<g><path style="opacity:1" fill="#cc4e3c" d="M 84.5,60.5 C 85.8333,61.1667 85.8333,61.1667 84.5,60.5 Z"/></g>
<g><path style="opacity:1" fill="#ededeb" d="M 832.5,60.5 C 833.167,60.5 833.5,60.8333 833.5,61.5C 833.5,61.8333 833.5,62.1667 833.5,62.5C 831.576,62.2893 831.243,61.6226 832.5,60.5 Z"/></g>
<g><path style="opacity:1" fill="#ebecea" d="M 396.5,62.5 C 396.167,63.5 395.5,64.1667 394.5,64.5C 393.475,64.1034 393.308,63.4368 394,62.5C 394.77,61.4019 395.603,61.4019 396.5,62.5 Z"/></g>
<g><path style="opacity:1" fill="#cc4e3c" d="M 813.5,61.5 C 813.833,61.5 814.167,61.5 814.5,61.5C 814.315,62.1701 813.981,62.1701 813.5,61.5 Z"/></g>
<g><path style="opacity:1" fill="#cc4e3c" d="M 478.5,62.5 C 479.833,63.1667 479.833,63.1667 478.5,62.5 Z"/></g>
<g><path style="opacity:1" fill="#cc4e3c" d="M 812.5,62.5 C 812.833,62.5 813.167,62.5 813.5,62.5C 813.315,63.1701 812.981,63.1701 812.5,62.5 Z"/></g>
<g><path style="opacity:1" fill="#cc4e3c" d="M 833.5,62.5 C 833.833,62.5 834.167,62.5 834.5,62.5C 834.315,63.1701 833.981,63.1701 833.5,62.5 Z"/></g>
<g><path style="opacity:1" fill="#e3e3e0" d="M 89.5,63.5 C 91.6977,63.4088 92.0311,64.0755 90.5,65.5C 89.8333,65.5 89.5,65.1667 89.5,64.5C 89.5,64.1667 89.5,63.8333 89.5,63.5 Z"/></g>
<g><path style="opacity:1" fill="#cc4e3c" d="M 811.5,63.5 C 811.833,63.5 812.167,63.5 812.5,63.5C 812.315,64.1701 811.981,64.1701 811.5,63.5 Z"/></g>
<g><path style="opacity:1" fill="#edede9" d="M 275.5,63.5 C 276.167,63.5 276.5,63.8333 276.5,64.5C 276.5,64.8333 276.5,65.1667 276.5,65.5C 275.508,65.6716 274.842,65.3382 274.5,64.5C 275.167,64.5 275.5,64.1667 275.5,63.5 Z"/></g>
<g><path style="opacity:1" fill="#cc4e3c" d="M 507.5,64.5 C 508.833,65.1667 508.833,65.1667 507.5,64.5 Z"/></g>
<g><path style="opacity:1" fill="#cc4e3c" d="M 810.5,64.5 C 810.833,64.5 811.167,64.5 811.5,64.5C 811.315,65.1701 810.981,65.1701 810.5,64.5 Z"/></g>
<g><path style="opacity:1" fill="#cc4e3c" d="M 809.5,65.5 C 809.833,65.5 810.167,65.5 810.5,65.5C 810.315,66.1701 809.981,66.1701 809.5,65.5 Z"/></g>
<g><path style="opacity:1" fill="#cc4e3c" d="M 69.5,66.5 C 69.8333,66.5 70.1667,66.5 70.5,66.5C 70.3147,67.1701 69.9813,67.1701 69.5,66.5 Z"/></g>
<g><path style="opacity:1" fill="#e4e4e2" d="M 365.5,67.5 C 365.167,68.5 364.5,69.1667 363.5,69.5C 363.167,69.5 362.833,69.5 362.5,69.5C 362.632,66.9931 363.632,66.3264 365.5,67.5 Z"/></g>
<g><path style="opacity:1" fill="#efefe9" d="M 808.5,66.5 C 808.833,66.5 809.167,66.5 809.5,66.5C 809.027,67.9063 808.027,68.573 806.5,68.5C 806.5,68.1667 806.5,67.8333 806.5,67.5C 806.842,66.6618 807.508,66.3284 808.5,66.5 Z"/></g>
<g><path style="opacity:1" fill="#cc4e3c" d="M 379.5,67.5 C 380.833,68.1667 380.833,68.1667 379.5,67.5 Z"/></g>
<g><path style="opacity:1" fill="#cc4e3c" d="M 858.5,68.5 C 857.833,67.1667 857.833,67.1667 858.5,68.5 Z"/></g>
<g><path style="opacity:1" fill="#cc4e3c" d="M 74.5,68.5 C 73.8333,69.1667 73.8333,69.1667 74.5,68.5 Z"/></g>
<g><path style="opacity:1" fill="#cc4e3c" d="M 303.5,68.5 C 304.833,69.1667 304.833,69.1667 303.5,68.5 Z"/></g>
<g><path style="opacity:1" fill="#cc4e3c" d="M 805.5,68.5 C 805.833,68.5 806.167,68.5 806.5,68.5C 806.315,69.1701 805.981,69.1701 805.5,68.5 Z"/></g>
<g><path style="opacity:1" fill="#cc4e3c" d="M 94.5,69.5 C 94.8333,69.5 95.1667,69.5 95.5,69.5C 95.3147,70.1701 94.9813,70.1701 94.5,69.5 Z"/></g>
<g><path style="opacity:1" fill="#e5e6e2" d="M 362.5,69.5 C 362.5,69.8333 362.5,70.1667 362.5,70.5C 361.833,71.8333 360.833,72.8333 359.5,73.5C 358.693,71.2847 359.693,69.9513 362.5,69.5 Z"/></g>
<g><path style="opacity:1" fill="#cc4e3c" d="M 378.5,69.5 C 379.833,70.1667 379.833,70.1667 378.5,69.5 Z"/></g>
<g><path style="opacity:1" fill="#cc4e3c" d="M 484.5,69.5 C 485.833,70.1667 485.833,70.1667 484.5,69.5 Z"/></g>
<g><path style="opacity:1" fill="#cc4e3c" d="M 857.5,70.5 C 856.833,69.1667 856.833,69.1667 857.5,70.5 Z"/></g>
<g><path style="opacity:1" fill="#cc4e3c" d="M 288.5,70.5 C 287.833,71.1667 287.833,71.1667 288.5,70.5 Z"/></g>
<g><path style="opacity:1" fill="#cc4e3c" d="M 309.5,70.5 C 310.833,71.1667 310.833,71.1667 309.5,70.5 Z"/></g>
<g><path style="opacity:1" fill="#cc4e3c" d="M 486.5,70.5 C 487.833,71.1667 487.833,71.1667 486.5,70.5 Z"/></g>
<g><path style="opacity:1" fill="#cc4e3c" d="M 290.5,71.5 C 289.833,72.1667 289.833,72.1667 290.5,71.5 Z"/></g>
<g><path style="opacity:1" fill="#efefef" d="M 377.5,71.5 C 378.338,71.8417 378.672,72.5084 378.5,73.5C 378.167,73.5 377.833,73.5 377.5,73.5C 376.833,73.5 376.167,73.5 375.5,73.5C 375.5,72.8333 375.833,72.5 376.5,72.5C 377.167,72.5 377.5,72.1667 377.5,71.5 Z"/></g>
<g><path style="opacity:1" fill="#cc4e3c" d="M 405.5,71.5 C 406.833,72.1667 406.833,72.1667 405.5,71.5 Z"/></g>
<g><path style="opacity:1" fill="#cc4e3c" d="M 488.5,71.5 C 489.833,72.1667 489.833,72.1667 488.5,71.5 Z"/></g>
<g><path style="opacity:1" fill="#cc4e3c" d="M 779.5,71.5 C 778.833,72.1667 778.833,72.1667 779.5,71.5 Z"/></g>
<g><path style="opacity:1" fill="#cc4e3c" d="M 799.5,71.5 C 800.833,72.1667 800.833,72.1667 799.5,71.5 Z"/></g>
<g><path style="opacity:1" fill="#e1e3df" d="M 25.5,78.5 C 23.8333,77.5 22.5,76.1667 21.5,74.5C 23.5053,73.8764 25.1719,74.7097 26.5,77C 25.944,77.3826 25.6107,77.8826 25.5,78.5 Z"/></g>
<g><path style="opacity:1" fill="#c4c6c1" d="M 568.5,73.5 C 568.158,74.3382 567.492,74.6716 566.5,74.5C 566.711,72.5759 567.377,72.2426 568.5,73.5 Z"/></g>
<g><path style="opacity:1" fill="#cc4e3c" d="M 403.5,74.5 C 403.833,74.5 404.167,74.5 404.5,74.5C 404.315,75.1701 403.981,75.1701 403.5,74.5 Z"/></g>
<g><path style="opacity:1" fill="#cc4e3c" d="M 402.5,76.5 C 403.833,77.1667 403.833,77.1667 402.5,76.5 Z"/></g>
<g><path style="opacity:1" fill="#cc4e3c" d="M 401.5,77.5 C 401.833,77.5 402.167,77.5 402.5,77.5C 402.315,78.1701 401.981,78.1701 401.5,77.5 Z"/></g>
<g><path style="opacity:1" fill="#cc4e3c" d="M 575.5,77.5 C 575.5,78.8333 574.833,79.5 573.5,79.5C 573.5,79.1667 573.5,78.8333 573.5,78.5C 574.167,78.1667 574.833,77.8333 575.5,77.5 Z"/></g>
<g><path style="opacity:1" fill="#cc4e3c" d="M 306.5,78.5 C 305.833,79.1667 305.833,79.1667 306.5,78.5 Z"/></g>
<g><path style="opacity:1" fill="#cc4e3c" d="M 400.5,78.5 C 400.833,78.5 401.167,78.5 401.5,78.5C 401.315,79.1701 400.981,79.1701 400.5,78.5 Z"/></g>
<g><path style="opacity:1" fill="#cc4e3c" d="M 399.5,79.5 C 399.833,79.5 400.167,79.5 400.5,79.5C 400.315,80.1701 399.981,80.1701 399.5,79.5 Z"/></g>
<g><path style="opacity:1" fill="#cc4e3c" d="M 871.5,79.5 C 872.833,80.1667 872.833,80.1667 871.5,79.5 Z"/></g>
<g><path style="opacity:1" fill="#cc4e3c" d="M 398.5,80.5 C 398.833,80.5 399.167,80.5 399.5,80.5C 399.315,81.1701 398.981,81.1701 398.5,80.5 Z"/></g>
<g><path style="opacity:1" fill="#e8e8e8" d="M 473.5,79.5 C 474.338,79.8417 474.672,80.5084 474.5,81.5C 474.565,81.9382 474.399,82.2716 474,82.5C 473.626,81.5838 473.126,80.7504 472.5,80C 472.728,79.6012 473.062,79.4346 473.5,79.5 Z"/></g>
<g><path style="opacity:1" fill="#cc4e3c" d="M 870.5,80.5 C 870.833,80.5 871.167,80.5 871.5,80.5C 871.068,81.7095 870.401,82.7095 869.5,83.5C 869.5,83.1667 869.5,82.8333 869.5,82.5C 869.328,81.5084 869.662,80.8417 870.5,80.5 Z"/></g>
<g><path style="opacity:1" fill="#cc4e3c" d="M 31.5,81.5 C 32.8333,82.1667 32.8333,82.1667 31.5,81.5 Z"/></g>
<g><path style="opacity:1" fill="#cc4e3c" d="M 397.5,81.5 C 397.833,81.5 398.167,81.5 398.5,81.5C 398.315,82.1701 397.981,82.1701 397.5,81.5 Z"/></g>
<g><path style="opacity:1" fill="#eff4ef" d="M 847.5,82.5 C 847.158,83.3382 846.492,83.6716 845.5,83.5C 845.167,83.5 844.833,83.5 844.5,83.5C 845.221,81.6182 846.221,81.2848 847.5,82.5 Z"/></g>
<g><path style="opacity:1" fill="#cc4e3c" d="M 316.5,82.5 C 315.833,83.1667 315.833,83.1667 316.5,82.5 Z"/></g>
<g><path style="opacity:1" fill="#cc4e3c" d="M 396.5,82.5 C 396.833,82.5 397.167,82.5 397.5,82.5C 397.315,83.1701 396.981,83.1701 396.5,82.5 Z"/></g>
<g><path style="opacity:1" fill="#e2e2e1" d="M 476.5,82.5 C 477.5,82.8333 478.167,83.5 478.5,84.5C 478.565,84.9382 478.399,85.2716 478,85.5C 475.842,84.9498 475.342,83.9498 476.5,82.5 Z"/></g>
<g><path style="opacity:1" fill="#cc4e3c" d="M 868.5,83.5 C 868.833,83.5 869.167,83.5 869.5,83.5C 869.315,84.1701 868.981,84.1701 868.5,83.5 Z"/></g>
<g><path style="opacity:1" fill="#cc4e3c" d="M 393.5,84.5 C 393.833,84.5 394.167,84.5 394.5,84.5C 394.315,85.1701 393.981,85.1701 393.5,84.5 Z"/></g>
<g><path style="opacity:1" fill="#cc4e3c" d="M 867.5,84.5 C 867.833,84.5 868.167,84.5 868.5,84.5C 868.315,85.1701 867.981,85.1701 867.5,84.5 Z"/></g>
<g><path style="opacity:1" fill="#cc4e3c" d="M 11.5,85.5 C 10.8333,86.1667 10.8333,86.1667 11.5,85.5 Z"/></g>
<g><path style="opacity:1" fill="#cc4e3c" d="M 866.5,85.5 C 866.833,85.5 867.167,85.5 867.5,85.5C 867.315,86.1701 866.981,86.1701 866.5,85.5 Z"/></g>
<g><path style="opacity:1" fill="#cc4e3c" d="M 865.5,86.5 C 865.833,86.5 866.167,86.5 866.5,86.5C 866.315,87.1701 865.981,87.1701 865.5,86.5 Z"/></g>
<g><path style="opacity:1" fill="#cc4e3c" d="M 481.5,87.5 C 481.833,87.5 482.167,87.5 482.5,87.5C 482.315,88.1701 481.981,88.1701 481.5,87.5 Z"/></g>
<g><path style="opacity:1" fill="#e3e5e3" d="M 550.5,87.5 C 550.842,86.6618 551.508,86.3284 552.5,86.5C 553.167,86.5 553.5,86.8333 553.5,87.5C 552.652,88.625 551.652,88.625 550.5,87.5 Z"/></g>
<g><path style="opacity:1" fill="#cc4e3c" d="M 15.5,88.5 C 15.8333,88.5 16.1667,88.5 16.5,88.5C 16.3147,89.1701 15.9813,89.1701 15.5,88.5 Z"/></g>
<g><path style="opacity:1" fill="#edefed" d="M 44.5,88.5 C 45.7574,89.6226 45.4241,90.2893 43.5,90.5C 43.5,90.1667 43.5,89.8333 43.5,89.5C 43.5,88.8333 43.8333,88.5 44.5,88.5 Z"/></g>
<g><path style="opacity:1" fill="#cc4e3c" d="M 333.5,88.5 C 332.833,89.1667 332.833,89.1667 333.5,88.5 Z"/></g>
<g><path style="opacity:1" fill="#e3e3de" d="M 547.5,88.5 C 547.842,87.6618 548.508,87.3284 549.5,87.5C 550.504,89.6773 549.838,90.0107 547.5,88.5 Z"/></g>
<g><path style="opacity:1" fill="#cc4e3c" d="M 862.5,88.5 C 862.833,88.5 863.167,88.5 863.5,88.5C 863.315,89.1701 862.981,89.1701 862.5,88.5 Z"/></g>
<g><path style="opacity:1" fill="#ebebeb" d="M 485.5,88.5 C 486.167,88.5 486.5,88.8333 486.5,89.5C 486.5,89.8333 486.5,90.1667 486.5,90.5C 485.508,90.6716 484.842,90.3382 484.5,89.5C 485.167,89.5 485.5,89.1667 485.5,88.5 Z"/></g>
</svg>
